<?xml version="1.0" encoding="UTF-8"?>
<svg xmlns="http://www.w3.org/2000/svg" width="60" height="42" viewBox="0 0 60 42" aria-hidden="true" role="img">
  <defs>
    <clipPath id="r"><rect width="60" height="42" rx="2" ry="2"/></clipPath>
  </defs>
  <g clip-path="url(#r)">
    <!-- Portuguese flag proportions (2:3), green 2/5, red 3/5 -->
    <rect width="24" height="42" x="0" y="0" fill="#006600"/>
    <rect width="36" height="42" x="24" y="0" fill="#FF0000"/>
    <!-- Simplified armillary sphere emblem -->
    <g transform="translate(24,21)">
      <circle r="7.5" fill="#F8D24A" stroke="#C9A300" stroke-width="0.8"/>
      <circle r="5.2" fill="none" stroke="#C9A300" stroke-width="0.7"/>
      <ellipse rx="6.8" ry="2.2" fill="none" stroke="#C9A300" stroke-width="0.6"/>
      <ellipse rx="2.2" ry="6.8" fill="none" stroke="#C9A300" stroke-width="0.6"/>
      <!-- Shield -->
      <path d="M0,-3.6 c2.6,0 4.7,1.4 4.7,3.6 v1.5 c0,2.2 -2.1,4.3 -4.7,5.2 c-2.6,-0.9 -4.7,-3 -4.7,-5.2 V0 c0,-2.2 2.1,-3.6 4.7,-3.6z" fill="#D00000" stroke="#990000" stroke-width="0.5"/>
      <rect x="-2.3" y="-1.6" width="4.6" height="3.8" fill="#FFFFFF"/>
      <circle cx="-1.2" cy="-0.6" r="0.35" fill="#0D4EA6"/>
      <circle cx="0" cy="-0.6" r="0.35" fill="#0D4EA6"/>
      <circle cx="1.2" cy="-0.6" r="0.35" fill="#0D4EA6"/>
      <circle cx="-0.6" cy="0.6" r="0.35" fill="#0D4EA6"/>
      <circle cx="0.6" cy="0.6" r="0.35" fill="#0D4EA6"/>
    </g>
  </g>
</svg>
