<?xml version="1.0" encoding="UTF-8"?>
<svg xmlns="http://www.w3.org/2000/svg" width="60" height="42" viewBox="0 0 60 42" aria-hidden="true" role="img">
  <defs>
    <clipPath id="r"><rect width="60" height="42" rx="2" ry="2"/></clipPath>
  </defs>
  <g clip-path="url(#r)">
    <rect width="60" height="42" fill="#012169"/>
    <!-- White diagonals -->
    <path d="M0,0 L7,0 L60,26 L60,32 L53,32 L0,6 Z" fill="#FFF"/>
    <path d="M60,0 L53,0 L0,26 L0,32 L7,32 L60,6 Z" fill="#FFF"/>
    <!-- Red diagonals -->
    <path d="M0,0 L3.5,0 L60,28.5 L60,32 L56.5,32 L0,3.5 Z" fill="#C8102E"/>
    <path d="M60,0 L56.5,0 L0,28.5 L0,32 L3.5,32 L60,3.5 Z" fill="#C8102E"/>
    <!-- White cross -->
    <rect x="0" y="14.5" width="60" height="13" fill="#FFF"/>
    <rect x="23.5" y="0" width="13" height="42" fill="#FFF"/>
    <!-- Red cross -->
    <rect x="0" y="17" width="60" height="8" fill="#C8102E"/>
    <rect x="26" y="0" width="8" height="42" fill="#C8102E"/>
  </g>
</svg>
